{
  "accessors": [
    {
      "bufferView": 2,
      "componentType": 5126,
      "count": 175,
      "max": [
        0.93593001365661621,
        1.0071099996566772,
        1.1106599569320679
      ],
      "min": [
        -0.70524001121520996,
        -1.0155999660491943,
        -0.10532999783754349
      ],
      "type": "VEC3"
    },
    {
      "bufferView": 2,
      "byteOffset": 2100,
      "componentType": 5126,
      "count": 175,
      "max": [
        0.99921739101409912,
        0.69409400224685669,
        0.14249037206172943
      ],
      "min": [
        -0.99527490139007568,
        -0.99953716993331909,
        -0.23283711075782776
      ],
      "type": "VEC3"
    },
    {
      "bufferView": 3,
      "componentType": 5126,
      "count": 175,
      "max": [
        0,
        0,
        0,
        1
      ],
      "min": [
        0,
        0,
        0,
        1
      ],
      "type": "VEC4"
    },
    {
      "bufferView": 1,
      "componentType": 5126,
      "count": 175,
      "max": [
        0.35183998942375183,
        0.56049001216888428
      ],
      "min": [
        0.35183998942375183,
        0.30509001016616821
      ],
      "type": "VEC2"
    },
    {
      "bufferView": 0,
      "componentType": 5125,
      "count": 315,
      "max": [
        174
      ],
      "min": [
        0
      ],
      "type": "SCALAR"
    }
  ],
  "asset": {
    "extras": {
      "author": "roguenoodle (https://sketchfab.com/roguenoodle)",
      "license": "CC-BY-4.0 (http://creativecommons.org/licenses/by/4.0/)",
      "source": "https://sketchfab.com/models/2ebaf738303347afbe4bd0101f0be9b3",
      "title": "Medieval Fantasy - Grass Patch A"
    },
    "generator": "Sketchfab-3.18.7",
    "version": "2.0"
  },
  "bufferViews": [
    {
      "buffer": 0,
      "byteLength": 1260,
      "byteOffset": 0,
      "name": "floatBufferViews",
      "target": 34963
    },
    {
      "buffer": 0,
      "byteLength": 1400,
      "byteOffset": 1260,
      "byteStride": 8,
      "name": "floatBufferViews",
      "target": 34962
    },
    {
      "buffer": 0,
      "byteLength": 4200,
      "byteOffset": 2660,
      "byteStride": 12,
      "name": "floatBufferViews",
      "target": 34962
    },
    {
      "buffer": 0,
      "byteLength": 2800,
      "byteOffset": 6860,
      "byteStride": 16,
      "name": "floatBufferViews",
      "target": 34962
    }
  ],
  "buffers": [
    {
      "byteLength": 9660,
      "uri": "scene.bin"
    }
  ],
  "images": [
    {
      "uri": "textures/medievalfantasyforest_unwrap_baseColor.png"
    }
  ],
  "materials": [
    {
      "doubleSided": true,
      "name": "medievalfantasyforest_unwrap",
      "pbrMetallicRoughness": {
        "baseColorFactor": [
          1,
          1,
          1,
          1
        ],
        "baseColorTexture": {
          "index": 0,
          "texCoord": 0
        },
        "metallicFactor": 0,
        "roughnessFactor": 1
      }
    }
  ],
  "meshes": [
    {
      "name": "mff_grass_patch_0_0",
      "primitives": [
        {
          "attributes": {
            "NORMAL": 1,
            "POSITION": 0,
            "TANGENT": 2,
            "TEXCOORD_0": 3
          },
          "indices": 4,
          "material": 0,
          "mode": 4
        }
      ]
    }
  ],
  "nodes": [
    {
      "children": [
        1
      ],
      "name": "RootNode (gltf orientation matrix)",
      "rotation": [
        -0.70710678118654746,
        -0,
        -0,
        0.70710678118654757
      ]
    },
    {
      "children": [
        2
      ],
      "name": "RootNode (model correction matrix)"
    },
    {
      "children": [
        3
      ],
      "name": "Root"
    },
    {
      "children": [
        4
      ],
      "matrix": [
        1,
        0,
        0,
        0,
        0,
        1,
        0,
        0,
        0,
        0,
        1,
        0,
        -38.98836,
        -4.6020899999999996,
        0,
        1
      ],
      "name": "mff_grass_patch_0"
    },
    {
      "mesh": 0,
      "name": "mff_grass_patch_0_0"
    }
  ],
  "samplers": [
    {
      "magFilter": 9729,
      "minFilter": 9987,
      "wrapS": 10497,
      "wrapT": 10497
    }
  ],
  "scene": 0,
  "scenes": [
    {
      "name": "OSG_Scene",
      "nodes": [
        0
      ]
    }
  ],
  "textures": [
    {
      "sampler": 0,
      "source": 0
    }
  ]
}

