{
  "accessors": [
    {
      "bufferView": 2,
      "componentType": 5126,
      "count": 193,
      "max": [
        2.4866199493408203,
        0.36465999484062195,
        0.10010000318288803
      ],
      "min": [
        -2.4886200428009033,
        -0.37299001216888428,
        -0.089350000023841858
      ],
      "type": "VEC3"
    },
    {
      "bufferView": 2,
      "byteOffset": 2316,
      "componentType": 5126,
      "count": 193,
      "max": [
        1,
        0.99999487400054932,
        0.99999511241912842
      ],
      "min": [
        -0.9999992847442627,
        -0.99999940395355225,
        -0.99999892711639404
      ],
      "type": "VEC3"
    },
    {
      "bufferView": 3,
      "componentType": 5126,
      "count": 193,
      "max": [
        0,
        0,
        0,
        1
      ],
      "min": [
        0,
        0,
        0,
        1
      ],
      "type": "VEC4"
    },
    {
      "bufferView": 1,
      "componentType": 5126,
      "count": 193,
      "max": [
        0.14731000363826752,
        0.76576000452041626
      ],
      "min": [
        0.10135000199079514,
        0.7108299732208252
      ],
      "type": "VEC2"
    },
    {
      "bufferView": 0,
      "componentType": 5125,
      "count": 204,
      "max": [
        192
      ],
      "min": [
        0
      ],
      "type": "SCALAR"
    }
  ],
  "asset": {
    "extras": {
      "author": "roguenoodle (https://sketchfab.com/roguenoodle)",
      "license": "CC-BY-4.0 (http://creativecommons.org/licenses/by/4.0/)",
      "source": "https://sketchfab.com/models/d9608b3e06144e45a0de68a371ca8835",
      "title": "Medieval Fantasy - Plank"
    },
    "generator": "Sketchfab-3.18.7",
    "version": "2.0"
  },
  "bufferViews": [
    {
      "buffer": 0,
      "byteLength": 816,
      "byteOffset": 0,
      "name": "floatBufferViews",
      "target": 34963
    },
    {
      "buffer": 0,
      "byteLength": 1544,
      "byteOffset": 816,
      "byteStride": 8,
      "name": "floatBufferViews",
      "target": 34962
    },
    {
      "buffer": 0,
      "byteLength": 4632,
      "byteOffset": 2360,
      "byteStride": 12,
      "name": "floatBufferViews",
      "target": 34962
    },
    {
      "buffer": 0,
      "byteLength": 3088,
      "byteOffset": 6992,
      "byteStride": 16,
      "name": "floatBufferViews",
      "target": 34962
    }
  ],
  "buffers": [
    {
      "byteLength": 10080,
      "uri": "scene.bin"
    }
  ],
  "images": [
    {
      "uri": "textures/medievalfantasyforest_unwrap_baseColor.png"
    }
  ],
  "materials": [
    {
      "doubleSided": true,
      "name": "medievalfantasyforest_unwrap",
      "pbrMetallicRoughness": {
        "baseColorFactor": [
          1,
          1,
          1,
          1
        ],
        "baseColorTexture": {
          "index": 0,
          "texCoord": 0
        },
        "metallicFactor": 0,
        "roughnessFactor": 1
      }
    }
  ],
  "meshes": [
    {
      "name": "mff_prop_wood_plank_0",
      "primitives": [
        {
          "attributes": {
            "NORMAL": 1,
            "POSITION": 0,
            "TANGENT": 2,
            "TEXCOORD_0": 3
          },
          "indices": 4,
          "material": 0,
          "mode": 4
        }
      ]
    }
  ],
  "nodes": [
    {
      "children": [
        1
      ],
      "name": "RootNode (gltf orientation matrix)",
      "rotation": [
        -0.70710678118654746,
        -0,
        -0,
        0.70710678118654757
      ]
    },
    {
      "children": [
        2
      ],
      "name": "RootNode (model correction matrix)"
    },
    {
      "children": [
        3
      ],
      "name": "Root"
    },
    {
      "children": [
        4
      ],
      "matrix": [
        0.99795999999999996,
        0.063840000000000008,
        0,
        0,
        -0.063840000000000008,
        0.99795999999999996,
        0,
        0,
        0,
        0,
        1,
        0,
        -38.490600000000001,
        0.37057000000000007,
        0,
        1
      ],
      "name": "mff_prop_wood_plank"
    },
    {
      "mesh": 0,
      "name": "mff_prop_wood_plank_0"
    }
  ],
  "samplers": [
    {
      "magFilter": 9729,
      "minFilter": 9987,
      "wrapS": 10497,
      "wrapT": 10497
    }
  ],
  "scene": 0,
  "scenes": [
    {
      "name": "OSG_Scene",
      "nodes": [
        0
      ]
    }
  ],
  "textures": [
    {
      "sampler": 0,
      "source": 0
    }
  ]
}

