{
  "accessors": [
    {
      "bufferView": 2,
      "componentType": 5126,
      "count": 260,
      "max": [
        9.6368598937988281,
        10.732930183410645,
        5.7957501411437988
      ],
      "min": [
        -3.361030101776123,
        -3.4741699695587158,
        -1.3988200426101685
      ],
      "type": "VEC3"
    },
    {
      "bufferView": 2,
      "byteOffset": 3120,
      "componentType": 5126,
      "count": 260,
      "max": [
        0.98847639560699463,
        0.96055787801742554,
        0.99911248683929443
      ],
      "min": [
        -0.99459362030029297,
        -0.98216724395751953,
        -0.9991568922996521
      ],
      "type": "VEC3"
    },
    {
      "bufferView": 3,
      "componentType": 5126,
      "count": 260,
      "max": [
        0,
        0,
        0,
        1
      ],
      "min": [
        0,
        0,
        0,
        1
      ],
      "type": "VEC4"
    },
    {
      "bufferView": 1,
      "componentType": 5126,
      "count": 260,
      "max": [
        0.076169997453689575,
        0.98438000679016113
      ],
      "min": [
        0.076169997453689575,
        0.98436999320983887
      ],
      "type": "VEC2"
    },
    {
      "bufferView": 0,
      "componentType": 5125,
      "count": 312,
      "max": [
        259
      ],
      "min": [
        0
      ],
      "type": "SCALAR"
    }
  ],
  "asset": {
    "extras": {
      "author": "roguenoodle (https://sketchfab.com/roguenoodle)",
      "license": "CC-BY-4.0 (http://creativecommons.org/licenses/by/4.0/)",
      "source": "https://sketchfab.com/models/6ee2f122fc1445129755222be6d3d5f1",
      "title": "Medieval Fantasy - Cloud"
    },
    "generator": "Sketchfab-3.18.7",
    "version": "2.0"
  },
  "bufferViews": [
    {
      "buffer": 0,
      "byteLength": 1248,
      "byteOffset": 0,
      "name": "floatBufferViews",
      "target": 34963
    },
    {
      "buffer": 0,
      "byteLength": 2080,
      "byteOffset": 1248,
      "byteStride": 8,
      "name": "floatBufferViews",
      "target": 34962
    },
    {
      "buffer": 0,
      "byteLength": 6240,
      "byteOffset": 3328,
      "byteStride": 12,
      "name": "floatBufferViews",
      "target": 34962
    },
    {
      "buffer": 0,
      "byteLength": 4160,
      "byteOffset": 9568,
      "byteStride": 16,
      "name": "floatBufferViews",
      "target": 34962
    }
  ],
  "buffers": [
    {
      "byteLength": 13728,
      "uri": "scene.bin"
    }
  ],
  "images": [
    {
      "uri": "textures/medievalfantasyforest_unwrap_baseColor.png"
    }
  ],
  "materials": [
    {
      "doubleSided": true,
      "name": "medievalfantasyforest_unwrap",
      "pbrMetallicRoughness": {
        "baseColorFactor": [
          1,
          1,
          1,
          1
        ],
        "baseColorTexture": {
          "index": 0,
          "texCoord": 0
        },
        "metallicFactor": 0,
        "roughnessFactor": 1
      }
    }
  ],
  "meshes": [
    {
      "name": "mff_cloud_0",
      "primitives": [
        {
          "attributes": {
            "NORMAL": 1,
            "POSITION": 0,
            "TANGENT": 2,
            "TEXCOORD_0": 3
          },
          "indices": 4,
          "material": 0,
          "mode": 4
        }
      ]
    }
  ],
  "nodes": [
    {
      "children": [
        1
      ],
      "name": "RootNode (gltf orientation matrix)",
      "rotation": [
        -0.70710678118654746,
        -0,
        -0,
        0.70710678118654757
      ]
    },
    {
      "children": [
        2
      ],
      "name": "RootNode (model correction matrix)"
    },
    {
      "children": [
        3
      ],
      "name": "Root"
    },
    {
      "children": [
        4
      ],
      "matrix": [
        1,
        0,
        0,
        0,
        0,
        1,
        0,
        0,
        0,
        0,
        1,
        0,
        -1.1193199999999999,
        38.457449999999994,
        0.27193000000000001,
        1
      ],
      "name": "mff_cloud"
    },
    {
      "mesh": 0,
      "name": "mff_cloud_0"
    }
  ],
  "samplers": [
    {
      "magFilter": 9729,
      "minFilter": 9987,
      "wrapS": 10497,
      "wrapT": 10497
    }
  ],
  "scene": 0,
  "scenes": [
    {
      "name": "OSG_Scene",
      "nodes": [
        0
      ]
    }
  ],
  "textures": [
    {
      "sampler": 0,
      "source": 0
    }
  ]
}

