{
  "accessors": [
    {
      "bufferView": 2,
      "componentType": 5126,
      "count": 309,
      "max": [
        0.17151999473571777,
        0.19471000134944916,
        0.52719998359680176
      ],
      "min": [
        -0.20679000020027161,
        -0.19248999655246735,
        -0.025429999455809593
      ],
      "type": "VEC3"
    },
    {
      "bufferView": 2,
      "byteOffset": 3708,
      "componentType": 5126,
      "count": 309,
      "max": [
        0.97451215982437134,
        0.99461644887924194,
        0.99827420711517334
      ],
      "min": [
        -0.98119187355041504,
        -0.99957787990570068,
        -0.99970120191574097
      ],
      "type": "VEC3"
    },
    {
      "bufferView": 3,
      "componentType": 5126,
      "count": 309,
      "max": [
        0.99993777275085449,
        0.98520576953887939,
        0.16580899059772491,
        1
      ],
      "min": [
        -1,
        -0.98528212308883667,
        -0.18306994438171387,
        -1
      ],
      "type": "VEC4"
    },
    {
      "bufferView": 1,
      "componentType": 5126,
      "count": 309,
      "max": [
        0.19908000528812408,
        0.99159002304077148
      ],
      "min": [
        0.057229999452829361,
        0.10349000245332718
      ],
      "type": "VEC2"
    },
    {
      "bufferView": 0,
      "componentType": 5125,
      "count": 1335,
      "max": [
        308
      ],
      "min": [
        0
      ],
      "type": "SCALAR"
    }
  ],
  "asset": {
    "extras": {
      "author": "roguenoodle (https://sketchfab.com/roguenoodle)",
      "license": "CC-BY-4.0 (http://creativecommons.org/licenses/by/4.0/)",
      "source": "https://sketchfab.com/models/117b4a5dc9e7454ba49709f8535758f9",
      "title": "Medieval Fantasy - Mushroom Red"
    },
    "generator": "Sketchfab-3.18.6",
    "version": "2.0"
  },
  "bufferViews": [
    {
      "buffer": 0,
      "byteLength": 5340,
      "byteOffset": 0,
      "name": "floatBufferViews",
      "target": 34963
    },
    {
      "buffer": 0,
      "byteLength": 2472,
      "byteOffset": 5340,
      "byteStride": 8,
      "name": "floatBufferViews",
      "target": 34962
    },
    {
      "buffer": 0,
      "byteLength": 7416,
      "byteOffset": 7812,
      "byteStride": 12,
      "name": "floatBufferViews",
      "target": 34962
    },
    {
      "buffer": 0,
      "byteLength": 4944,
      "byteOffset": 15228,
      "byteStride": 16,
      "name": "floatBufferViews",
      "target": 34962
    }
  ],
  "buffers": [
    {
      "byteLength": 20172,
      "uri": "scene.bin"
    }
  ],
  "images": [
    {
      "uri": "textures/medievalfantasyforest_unwrap_baseColor.png"
    }
  ],
  "materials": [
    {
      "doubleSided": true,
      "name": "medievalfantasyforest_unwrap",
      "pbrMetallicRoughness": {
        "baseColorFactor": [
          1,
          1,
          1,
          1
        ],
        "baseColorTexture": {
          "index": 0,
          "texCoord": 0
        },
        "metallicFactor": 0,
        "roughnessFactor": 1
      }
    }
  ],
  "meshes": [
    {
      "name": "mff_plant_mushroom_red_0",
      "primitives": [
        {
          "attributes": {
            "NORMAL": 1,
            "POSITION": 0,
            "TANGENT": 2,
            "TEXCOORD_0": 3
          },
          "indices": 4,
          "material": 0,
          "mode": 4
        }
      ]
    }
  ],
  "nodes": [
    {
      "children": [
        1
      ],
      "name": "RootNode (gltf orientation matrix)",
      "rotation": [
        -0.70710678118654746,
        -0,
        -0,
        0.70710678118654757
      ]
    },
    {
      "children": [
        2
      ],
      "name": "RootNode (model correction matrix)"
    },
    {
      "children": [
        3
      ],
      "name": "Root"
    },
    {
      "children": [
        4
      ],
      "matrix": [
        1,
        0,
        0,
        0,
        0,
        1,
        0,
        0,
        0,
        0,
        1,
        0,
        -49.715520000000005,
        -4.4734000000000007,
        0,
        1
      ],
      "name": "mff_plant_mushroom_red"
    },
    {
      "mesh": 0,
      "name": "mff_plant_mushroom_red_0"
    }
  ],
  "samplers": [
    {
      "magFilter": 9729,
      "minFilter": 9987,
      "wrapS": 10497,
      "wrapT": 10497
    }
  ],
  "scene": 0,
  "scenes": [
    {
      "name": "OSG_Scene",
      "nodes": [
        0
      ]
    }
  ],
  "textures": [
    {
      "sampler": 0,
      "source": 0
    }
  ]
}

