{
  "accessors": [
    {
      "bufferView": 2,
      "componentType": 5126,
      "count": 570,
      "max": [
        0.90983998775482178,
        0.93560999631881714,
        0.79189997911453247
      ],
      "min": [
        -1.1363899707794189,
        -0.87838000059127808,
        -0.021239999681711197
      ],
      "type": "VEC3"
    },
    {
      "bufferView": 2,
      "byteOffset": 6840,
      "componentType": 5126,
      "count": 570,
      "max": [
        0.75833624601364136,
        0.99978023767471313,
        0.36866334080696106
      ],
      "min": [
        -0.99956250190734863,
        -0.99970883131027222,
        -0.50720137357711792
      ],
      "type": "VEC3"
    },
    {
      "bufferView": 3,
      "componentType": 5126,
      "count": 570,
      "max": [
        0,
        0,
        0,
        1
      ],
      "min": [
        0,
        0,
        0,
        1
      ],
      "type": "VEC4"
    },
    {
      "bufferView": 1,
      "componentType": 5126,
      "count": 570,
      "max": [
        0.35681998729705811,
        0.5043799877166748
      ],
      "min": [
        0.35583999752998352,
        0.23874999582767487
      ],
      "type": "VEC2"
    },
    {
      "bufferView": 0,
      "componentType": 5125,
      "count": 1026,
      "max": [
        569
      ],
      "min": [
        0
      ],
      "type": "SCALAR"
    }
  ],
  "asset": {
    "extras": {
      "author": "roguenoodle (https://sketchfab.com/roguenoodle)",
      "license": "CC-BY-4.0 (http://creativecommons.org/licenses/by/4.0/)",
      "source": "https://sketchfab.com/models/84194a1ccd39420390038a0db3af2a3d",
      "title": "Medieval Fantasy - Grass Patch B"
    },
    "generator": "Sketchfab-3.18.7",
    "version": "2.0"
  },
  "bufferViews": [
    {
      "buffer": 0,
      "byteLength": 4104,
      "byteOffset": 0,
      "name": "floatBufferViews",
      "target": 34963
    },
    {
      "buffer": 0,
      "byteLength": 4560,
      "byteOffset": 4104,
      "byteStride": 8,
      "name": "floatBufferViews",
      "target": 34962
    },
    {
      "buffer": 0,
      "byteLength": 13680,
      "byteOffset": 8664,
      "byteStride": 12,
      "name": "floatBufferViews",
      "target": 34962
    },
    {
      "buffer": 0,
      "byteLength": 9120,
      "byteOffset": 22344,
      "byteStride": 16,
      "name": "floatBufferViews",
      "target": 34962
    }
  ],
  "buffers": [
    {
      "byteLength": 31464,
      "uri": "scene.bin"
    }
  ],
  "images": [
    {
      "uri": "textures/medievalfantasyforest_unwrap_baseColor.png"
    }
  ],
  "materials": [
    {
      "doubleSided": true,
      "emissiveFactor": [
        0,
        0,
        0
      ],
      "name": "medievalfantasyforest_unwrap",
      "pbrMetallicRoughness": {
        "baseColorFactor": [
          1,
          1,
          1,
          1
        ],
        "baseColorTexture": {
          "index": 0,
          "texCoord": 0
        },
        "metallicFactor": 0,
        "roughnessFactor": 1
      }
    }
  ],
  "meshes": [
    {
      "name": "mff_grass_patch_1_0",
      "primitives": [
        {
          "attributes": {
            "NORMAL": 1,
            "POSITION": 0,
            "TANGENT": 2,
            "TEXCOORD_0": 3
          },
          "indices": 4,
          "material": 0,
          "mode": 4
        }
      ]
    }
  ],
  "nodes": [
    {
      "children": [
        1
      ],
      "name": "RootNode (gltf orientation matrix)",
      "rotation": [
        -0.70710678118654746,
        -0,
        -0,
        0.70710678118654757
      ]
    },
    {
      "children": [
        2
      ],
      "name": "RootNode (model correction matrix)"
    },
    {
      "children": [
        3
      ],
      "name": "Root"
    },
    {
      "children": [
        4
      ],
      "matrix": [
        1,
        0,
        0,
        0,
        0,
        1,
        0,
        0,
        0,
        0,
        1,
        0,
        -36.859959999999994,
        -4.1557799999999991,
        0,
        1
      ],
      "name": "mff_grass_patch_1"
    },
    {
      "mesh": 0,
      "name": "mff_grass_patch_1_0"
    }
  ],
  "samplers": [
    {
      "magFilter": 9729,
      "minFilter": 9987,
      "wrapS": 10497,
      "wrapT": 10497
    }
  ],
  "scene": 0,
  "scenes": [
    {
      "name": "OSG_Scene",
      "nodes": [
        0
      ]
    }
  ],
  "textures": [
    {
      "sampler": 0,
      "source": 0
    }
  ]
}

