{
  "accessors": [
    {
      "bufferView": 2,
      "componentType": 5126,
      "count": 214,
      "max": [
        0.20477999746799469,
        0.21741999685764313,
        0.41214001178741455
      ],
      "min": [
        -0.21732999384403229,
        -0.2140900045633316,
        -0.0022299999836832285
      ],
      "type": "VEC3"
    },
    {
      "bufferView": 2,
      "byteOffset": 2568,
      "componentType": 5126,
      "count": 214,
      "max": [
        0.97926193475723267,
        0.99900335073471069,
        0.98109334707260132
      ],
      "min": [
        -0.99634116888046265,
        -0.99820011854171753,
        -0.99344897270202637
      ],
      "type": "VEC3"
    },
    {
      "bufferView": 3,
      "componentType": 5126,
      "count": 214,
      "max": [
        0.99957519769668579,
        0.9995044469833374,
        0.49335938692092896,
        1
      ],
      "min": [
        -0.99992227554321289,
        -0.98625904321670532,
        -0.45956435799598694,
        -1
      ],
      "type": "VEC4"
    },
    {
      "bufferView": 1,
      "componentType": 5126,
      "count": 214,
      "max": [
        0.57485002279281616,
        0.94494998455047607
      ],
      "min": [
        0.053029999136924744,
        0.38304001092910767
      ],
      "type": "VEC2"
    },
    {
      "bufferView": 0,
      "componentType": 5125,
      "count": 930,
      "max": [
        213
      ],
      "min": [
        0
      ],
      "type": "SCALAR"
    }
  ],
  "asset": {
    "extras": {
      "author": "roguenoodle (https://sketchfab.com/roguenoodle)",
      "license": "CC-BY-4.0 (http://creativecommons.org/licenses/by/4.0/)",
      "source": "https://sketchfab.com/models/5e5e8ca8153441a299a93593e5f40e7e",
      "title": "Medieval Fantasy - Mushroom Blue"
    },
    "generator": "Sketchfab-3.18.7",
    "version": "2.0"
  },
  "bufferViews": [
    {
      "buffer": 0,
      "byteLength": 3720,
      "byteOffset": 0,
      "name": "floatBufferViews",
      "target": 34963
    },
    {
      "buffer": 0,
      "byteLength": 1712,
      "byteOffset": 3720,
      "byteStride": 8,
      "name": "floatBufferViews",
      "target": 34962
    },
    {
      "buffer": 0,
      "byteLength": 5136,
      "byteOffset": 5432,
      "byteStride": 12,
      "name": "floatBufferViews",
      "target": 34962
    },
    {
      "buffer": 0,
      "byteLength": 3424,
      "byteOffset": 10568,
      "byteStride": 16,
      "name": "floatBufferViews",
      "target": 34962
    }
  ],
  "buffers": [
    {
      "byteLength": 13992,
      "uri": "scene.bin"
    }
  ],
  "images": [
    {
      "uri": "textures/medievalfantasyforest_unwrap_baseColor.png"
    }
  ],
  "materials": [
    {
      "doubleSided": true,
      "name": "medievalfantasyforest_unwrap",
      "pbrMetallicRoughness": {
        "baseColorFactor": [
          1,
          1,
          1,
          1
        ],
        "baseColorTexture": {
          "index": 0,
          "texCoord": 0
        },
        "metallicFactor": 0,
        "roughnessFactor": 1
      }
    }
  ],
  "meshes": [
    {
      "name": "mff_plant_mushroom_blue_0",
      "primitives": [
        {
          "attributes": {
            "NORMAL": 1,
            "POSITION": 0,
            "TANGENT": 2,
            "TEXCOORD_0": 3
          },
          "indices": 4,
          "material": 0,
          "mode": 4
        }
      ]
    }
  ],
  "nodes": [
    {
      "children": [
        1
      ],
      "name": "RootNode (gltf orientation matrix)",
      "rotation": [
        -0.70710678118654746,
        -0,
        -0,
        0.70710678118654757
      ]
    },
    {
      "children": [
        2
      ],
      "name": "RootNode (model correction matrix)"
    },
    {
      "children": [
        3
      ],
      "name": "Root"
    },
    {
      "children": [
        4
      ],
      "matrix": [
        1,
        0,
        0,
        0,
        0,
        1,
        0,
        0,
        0,
        0,
        1,
        0,
        -49.2575,
        -4.4734000000000007,
        0,
        1
      ],
      "name": "mff_plant_mushroom_blue"
    },
    {
      "mesh": 0,
      "name": "mff_plant_mushroom_blue_0"
    }
  ],
  "samplers": [
    {
      "magFilter": 9729,
      "minFilter": 9987,
      "wrapS": 10497,
      "wrapT": 10497
    }
  ],
  "scene": 0,
  "scenes": [
    {
      "name": "OSG_Scene",
      "nodes": [
        0
      ]
    }
  ],
  "textures": [
    {
      "sampler": 0,
      "source": 0
    }
  ]
}

