{
  "accessors": [
    {
      "bufferView": 2,
      "componentType": 5126,
      "count": 1502,
      "max": [
        4.142240047454834,
        4.2341699600219727,
        5
      ],
      "min": [
        -4.0903100967407227,
        -4.2310600280761719,
        -0.2021699994802475
      ],
      "type": "VEC3"
    },
    {
      "bufferView": 2,
      "byteOffset": 18024,
      "componentType": 5126,
      "count": 1502,
      "max": [
        0.99186360836029053,
        0.99173551797866821,
        1
      ],
      "min": [
        -0.99186360836029053,
        -0.99174320697784424,
        -1
      ],
      "type": "VEC3"
    },
    {
      "bufferView": 3,
      "componentType": 5126,
      "count": 1502,
      "max": [
        0,
        0,
        0,
        1
      ],
      "min": [
        0,
        0,
        0,
        1
      ],
      "type": "VEC4"
    },
    {
      "bufferView": 1,
      "componentType": 5126,
      "count": 1502,
      "max": [
        0.016200000420212746,
        0.96097999811172485
      ],
      "min": [
        0.005350000225007534,
        0.77645999193191528
      ],
      "type": "VEC2"
    },
    {
      "bufferView": 0,
      "componentType": 5125,
      "count": 1971,
      "max": [
        1501
      ],
      "min": [
        0
      ],
      "type": "SCALAR"
    }
  ],
  "asset": {
    "extras": {
      "author": "roguenoodle (https://sketchfab.com/roguenoodle)",
      "license": "CC-BY-4.0 (http://creativecommons.org/licenses/by/4.0/)",
      "source": "https://sketchfab.com/models/f337e78686fc4081b3bfcbdc04f5f05c",
      "title": "Medieval Fantasy - Tower Middle"
    },
    "generator": "Sketchfab-3.18.7",
    "version": "2.0"
  },
  "bufferViews": [
    {
      "buffer": 0,
      "byteLength": 7884,
      "byteOffset": 0,
      "name": "floatBufferViews",
      "target": 34963
    },
    {
      "buffer": 0,
      "byteLength": 12016,
      "byteOffset": 7884,
      "byteStride": 8,
      "name": "floatBufferViews",
      "target": 34962
    },
    {
      "buffer": 0,
      "byteLength": 36048,
      "byteOffset": 19900,
      "byteStride": 12,
      "name": "floatBufferViews",
      "target": 34962
    },
    {
      "buffer": 0,
      "byteLength": 24032,
      "byteOffset": 55948,
      "byteStride": 16,
      "name": "floatBufferViews",
      "target": 34962
    }
  ],
  "buffers": [
    {
      "byteLength": 79980,
      "uri": "scene.bin"
    }
  ],
  "images": [
    {
      "uri": "textures/medievalfantasyforest_unwrap_baseColor.png"
    }
  ],
  "materials": [
    {
      "doubleSided": true,
      "name": "medievalfantasyforest_unwrap",
      "pbrMetallicRoughness": {
        "baseColorFactor": [
          1,
          1,
          1,
          1
        ],
        "baseColorTexture": {
          "index": 0,
          "texCoord": 0
        },
        "metallicFactor": 0,
        "roughnessFactor": 1
      }
    }
  ],
  "meshes": [
    {
      "name": "mff_tower_middle_0",
      "primitives": [
        {
          "attributes": {
            "NORMAL": 1,
            "POSITION": 0,
            "TANGENT": 2,
            "TEXCOORD_0": 3
          },
          "indices": 4,
          "material": 0,
          "mode": 4
        }
      ]
    }
  ],
  "nodes": [
    {
      "children": [
        1
      ],
      "name": "RootNode (gltf orientation matrix)",
      "rotation": [
        -0.70710678118654746,
        -0,
        -0,
        0.70710678118654757
      ]
    },
    {
      "children": [
        2
      ],
      "name": "RootNode (model correction matrix)"
    },
    {
      "children": [
        3
      ],
      "name": "Root"
    },
    {
      "children": [
        4
      ],
      "matrix": [
        1,
        0,
        0,
        0,
        0,
        1,
        0,
        0,
        0,
        0,
        1,
        0,
        -41.449170000000002,
        22.874820000000003,
        -0.054930000000000014,
        1
      ],
      "name": "mff_tower_middle"
    },
    {
      "mesh": 0,
      "name": "mff_tower_middle_0"
    }
  ],
  "samplers": [
    {
      "magFilter": 9729,
      "minFilter": 9987,
      "wrapS": 10497,
      "wrapT": 10497
    }
  ],
  "scene": 0,
  "scenes": [
    {
      "name": "OSG_Scene",
      "nodes": [
        0
      ]
    }
  ],
  "textures": [
    {
      "sampler": 0,
      "source": 0
    }
  ]
}

