{
  "accessors": [
    {
      "bufferView": 2,
      "componentType": 5126,
      "count": 158,
      "max": [
        0.19891999661922455,
        0.21094000339508057,
        0.41446998715400696
      ],
      "min": [
        -0.20439000427722931,
        -0.21367999911308289,
        -0.015200000256299973
      ],
      "type": "VEC3"
    },
    {
      "bufferView": 2,
      "byteOffset": 1896,
      "componentType": 5126,
      "count": 158,
      "max": [
        0.94483911991119385,
        0.99906933307647705,
        0.99980968236923218
      ],
      "min": [
        -0.95661234855651855,
        -0.85480791330337524,
        -0.99598044157028198
      ],
      "type": "VEC3"
    },
    {
      "bufferView": 3,
      "componentType": 5126,
      "count": 158,
      "max": [
        0.99988728761672974,
        0.995228111743927,
        0.52234035730361938,
        1
      ],
      "min": [
        -0.99996793270111084,
        -0.97538644075393677,
        -0.49169138073921204,
        -1
      ],
      "type": "VEC4"
    },
    {
      "bufferView": 1,
      "componentType": 5126,
      "count": 158,
      "max": [
        0.28578999638557434,
        0.96705001592636108
      ],
      "min": [
        0.052609998732805252,
        0.35791999101638794
      ],
      "type": "VEC2"
    },
    {
      "bufferView": 0,
      "componentType": 5125,
      "count": 555,
      "max": [
        157
      ],
      "min": [
        0
      ],
      "type": "SCALAR"
    }
  ],
  "asset": {
    "extras": {
      "author": "roguenoodle (https://sketchfab.com/roguenoodle)",
      "license": "CC-BY-4.0 (http://creativecommons.org/licenses/by/4.0/)",
      "source": "https://sketchfab.com/models/fe88a013b7fe4a19970cc12d150d3859",
      "title": "Medieval Fantasy - Mushroom Yellow"
    },
    "generator": "Sketchfab-3.18.7",
    "version": "2.0"
  },
  "bufferViews": [
    {
      "buffer": 0,
      "byteLength": 2220,
      "byteOffset": 0,
      "name": "floatBufferViews",
      "target": 34963
    },
    {
      "buffer": 0,
      "byteLength": 1264,
      "byteOffset": 2220,
      "byteStride": 8,
      "name": "floatBufferViews",
      "target": 34962
    },
    {
      "buffer": 0,
      "byteLength": 3792,
      "byteOffset": 3484,
      "byteStride": 12,
      "name": "floatBufferViews",
      "target": 34962
    },
    {
      "buffer": 0,
      "byteLength": 2528,
      "byteOffset": 7276,
      "byteStride": 16,
      "name": "floatBufferViews",
      "target": 34962
    }
  ],
  "buffers": [
    {
      "byteLength": 9804,
      "uri": "scene.bin"
    }
  ],
  "images": [
    {
      "uri": "textures/medievalfantasyforest_unwrap_baseColor.png"
    }
  ],
  "materials": [
    {
      "doubleSided": true,
      "name": "medievalfantasyforest_unwrap",
      "pbrMetallicRoughness": {
        "baseColorFactor": [
          1,
          1,
          1,
          1
        ],
        "baseColorTexture": {
          "index": 0,
          "texCoord": 0
        },
        "metallicFactor": 0,
        "roughnessFactor": 1
      }
    }
  ],
  "meshes": [
    {
      "name": "mff_plant_mushroom_yellow_0",
      "primitives": [
        {
          "attributes": {
            "NORMAL": 1,
            "POSITION": 0,
            "TANGENT": 2,
            "TEXCOORD_0": 3
          },
          "indices": 4,
          "material": 0,
          "mode": 4
        }
      ]
    }
  ],
  "nodes": [
    {
      "children": [
        1
      ],
      "name": "RootNode (gltf orientation matrix)",
      "rotation": [
        -0.70710678118654746,
        -0,
        -0,
        0.70710678118654757
      ]
    },
    {
      "children": [
        2
      ],
      "name": "RootNode (model correction matrix)"
    },
    {
      "children": [
        3
      ],
      "name": "Root"
    },
    {
      "children": [
        4
      ],
      "matrix": [
        1,
        0,
        0,
        0,
        0,
        1,
        0,
        0,
        0,
        0,
        1,
        0,
        -48.772250000000007,
        -4.4734000000000007,
        0,
        1
      ],
      "name": "mff_plant_mushroom_yellow"
    },
    {
      "mesh": 0,
      "name": "mff_plant_mushroom_yellow_0"
    }
  ],
  "samplers": [
    {
      "magFilter": 9729,
      "minFilter": 9987,
      "wrapS": 10497,
      "wrapT": 10497
    }
  ],
  "scene": 0,
  "scenes": [
    {
      "name": "OSG_Scene",
      "nodes": [
        0
      ]
    }
  ],
  "textures": [
    {
      "sampler": 0,
      "source": 0
    }
  ]
}

